<mxfile host="Electron" agent="Mozilla/5.0 (Windows NT 10.0; Win64; x64) AppleWebKit/537.36 (KHTML, like Gecko) draw.io/26.0.4 Chrome/128.0.6613.186 Electron/32.2.5 Safari/537.36" version="26.0.4">
  <diagram name="Page-1" id="7e0a89b8-554c-2b80-1dc8-d5c74ca68de4">
    <mxGraphModel dx="1290" dy="1301" grid="1" gridSize="5" guides="1" tooltips="1" connect="1" arrows="1" fold="1" page="1" pageScale="1" pageWidth="1100" pageHeight="850" background="none" math="0" shadow="0">
      <root>
        <mxCell id="0" />
        <mxCell id="1" parent="0" />
        <mxCell id="NvIgzqc9MJrezyoWTwpg-35" value="" style="rounded=0;whiteSpace=wrap;html=1;fillColor=#a20025;fontColor=#ffffff;strokeColor=#6F0000;" vertex="1" parent="1">
          <mxGeometry x="220" y="230" width="635" height="510" as="geometry" />
        </mxCell>
        <mxCell id="NvIgzqc9MJrezyoWTwpg-24" value="" style="rounded=0;whiteSpace=wrap;html=1;rotation=90;" vertex="1" parent="1">
          <mxGeometry x="245" y="475" width="15" height="30" as="geometry" />
        </mxCell>
        <mxCell id="TACkRqqkwIsRz9XqD-mi-2" value="" style="shape=hexagon;perimeter=hexagonPerimeter2;whiteSpace=wrap;html=1;fixedSize=1;size=50;" parent="1" vertex="1">
          <mxGeometry x="450" y="303" width="200" height="180" as="geometry" />
        </mxCell>
        <mxCell id="TACkRqqkwIsRz9XqD-mi-3" value="" style="ellipse;whiteSpace=wrap;html=1;aspect=fixed;fillColor=#330000;strokeColor=#FFFFFF;fontColor=#ffffff;" parent="1" vertex="1">
          <mxGeometry x="530" y="248" width="40" height="40" as="geometry" />
        </mxCell>
        <mxCell id="TACkRqqkwIsRz9XqD-mi-4" value="" style="ellipse;whiteSpace=wrap;html=1;aspect=fixed;fillColor=#330000;strokeColor=#FFFFFF;fontColor=#ffffff;" parent="1" vertex="1">
          <mxGeometry x="530" y="498" width="40" height="40" as="geometry" />
        </mxCell>
        <mxCell id="TACkRqqkwIsRz9XqD-mi-5" value="" style="ellipse;whiteSpace=wrap;html=1;aspect=fixed;fillColor=#a20025;strokeColor=#FFFFFF;fontColor=#ffffff;" parent="1" vertex="1">
          <mxGeometry x="630" y="308" width="40" height="40" as="geometry" />
        </mxCell>
        <mxCell id="TACkRqqkwIsRz9XqD-mi-6" value="" style="ellipse;whiteSpace=wrap;html=1;aspect=fixed;fillColor=#a20025;strokeColor=#FFFFFF;fontColor=#ffffff;" parent="1" vertex="1">
          <mxGeometry x="630" y="438" width="40" height="40" as="geometry" />
        </mxCell>
        <mxCell id="TACkRqqkwIsRz9XqD-mi-7" value="" style="ellipse;whiteSpace=wrap;html=1;aspect=fixed;fillColor=#0050ef;strokeColor=#FFFFFF;fontColor=#ffffff;" parent="1" vertex="1">
          <mxGeometry x="430" y="308" width="40" height="40" as="geometry" />
        </mxCell>
        <mxCell id="TACkRqqkwIsRz9XqD-mi-8" value="" style="ellipse;whiteSpace=wrap;html=1;aspect=fixed;fillColor=#0050ef;strokeColor=#FFFFFF;fontColor=#ffffff;" parent="1" vertex="1">
          <mxGeometry x="430" y="438" width="40" height="40" as="geometry" />
        </mxCell>
        <mxCell id="TACkRqqkwIsRz9XqD-mi-16" value="" style="rounded=0;whiteSpace=wrap;html=1;rotation=0;fillColor=#a20025;fontColor=#ffffff;strokeColor=#6F0000;" parent="1" vertex="1">
          <mxGeometry x="505" y="298" width="30" height="10" as="geometry" />
        </mxCell>
        <mxCell id="TACkRqqkwIsRz9XqD-mi-17" value="" style="rounded=0;whiteSpace=wrap;html=1;rotation=-180;fillColor=#0050ef;fontColor=#ffffff;strokeColor=#001DBC;" parent="1" vertex="1">
          <mxGeometry x="565" y="298" width="30" height="10" as="geometry" />
        </mxCell>
        <mxCell id="TACkRqqkwIsRz9XqD-mi-18" value="" style="rounded=0;whiteSpace=wrap;html=1;rotation=-240;fillColor=#0050ef;fontColor=#ffffff;strokeColor=#001DBC;" parent="1" vertex="1">
          <mxGeometry x="595" y="458" width="30" height="10" as="geometry" />
        </mxCell>
        <mxCell id="TACkRqqkwIsRz9XqD-mi-19" value="" style="rounded=0;whiteSpace=wrap;html=1;rotation=120;fillColor=#a20025;fontColor=#ffffff;strokeColor=#6F0000;" parent="1" vertex="1">
          <mxGeometry x="620" y="408" width="30" height="10" as="geometry" />
        </mxCell>
        <mxCell id="TACkRqqkwIsRz9XqD-mi-20" value="" style="rounded=0;whiteSpace=wrap;html=1;rotation=0;fillColor=#a20025;fontColor=#ffffff;strokeColor=#6F0000;" parent="1" vertex="1">
          <mxGeometry x="565" y="478" width="30" height="10" as="geometry" />
        </mxCell>
        <mxCell id="TACkRqqkwIsRz9XqD-mi-22" value="" style="rounded=0;whiteSpace=wrap;html=1;rotation=0;fillColor=#0050ef;fontColor=#ffffff;strokeColor=#001DBC;" parent="1" vertex="1">
          <mxGeometry x="505" y="478" width="30" height="10" as="geometry" />
        </mxCell>
        <mxCell id="TACkRqqkwIsRz9XqD-mi-23" value="" style="rounded=0;whiteSpace=wrap;html=1;rotation=60;fillColor=#a20025;fontColor=#ffffff;strokeColor=#6F0000;" parent="1" vertex="1">
          <mxGeometry x="475" y="458" width="30" height="10" as="geometry" />
        </mxCell>
        <mxCell id="TACkRqqkwIsRz9XqD-mi-24" value="" style="rounded=0;whiteSpace=wrap;html=1;rotation=60;fillColor=#0050ef;fontColor=#ffffff;strokeColor=#001DBC;" parent="1" vertex="1">
          <mxGeometry x="450" y="408" width="30" height="10" as="geometry" />
        </mxCell>
        <mxCell id="TACkRqqkwIsRz9XqD-mi-25" value="" style="rounded=0;whiteSpace=wrap;html=1;rotation=-240;fillColor=#0050ef;fontColor=#ffffff;strokeColor=#001DBC;" parent="1" vertex="1">
          <mxGeometry x="475" y="318" width="30" height="10" as="geometry" />
        </mxCell>
        <mxCell id="TACkRqqkwIsRz9XqD-mi-26" value="" style="rounded=0;whiteSpace=wrap;html=1;rotation=-240;fillColor=#a20025;fontColor=#ffffff;strokeColor=#6F0000;" parent="1" vertex="1">
          <mxGeometry x="450" y="363" width="30" height="10" as="geometry" />
        </mxCell>
        <mxCell id="TACkRqqkwIsRz9XqD-mi-27" value="" style="rounded=0;whiteSpace=wrap;html=1;rotation=-120;fillColor=#a20025;fontColor=#ffffff;strokeColor=#6F0000;" parent="1" vertex="1">
          <mxGeometry x="595" y="318" width="30" height="10" as="geometry" />
        </mxCell>
        <mxCell id="TACkRqqkwIsRz9XqD-mi-28" value="" style="rounded=0;whiteSpace=wrap;html=1;rotation=-120;fillColor=#0050ef;fontColor=#ffffff;strokeColor=#001DBC;" parent="1" vertex="1">
          <mxGeometry x="620" y="368" width="30" height="10" as="geometry" />
        </mxCell>
        <mxCell id="TACkRqqkwIsRz9XqD-mi-29" value="Front" style="text;html=1;align=center;verticalAlign=middle;whiteSpace=wrap;rounded=0;" parent="1" vertex="1">
          <mxGeometry x="1180" y="65" width="60" height="30" as="geometry" />
        </mxCell>
        <mxCell id="TACkRqqkwIsRz9XqD-mi-30" value="Back" style="text;html=1;align=center;verticalAlign=middle;whiteSpace=wrap;rounded=0;fontColor=#FFFFFF;" parent="1" vertex="1">
          <mxGeometry x="520" y="223" width="60" height="30" as="geometry" />
        </mxCell>
        <mxCell id="TACkRqqkwIsRz9XqD-mi-31" value="Back&lt;div&gt;Right&lt;/div&gt;" style="text;html=1;align=center;verticalAlign=middle;whiteSpace=wrap;rounded=0;fontColor=#FFFFFF;" parent="1" vertex="1">
          <mxGeometry x="660" y="313" width="60" height="30" as="geometry" />
        </mxCell>
        <mxCell id="TACkRqqkwIsRz9XqD-mi-32" value="Back&lt;div&gt;Left&lt;/div&gt;" style="text;html=1;align=center;verticalAlign=middle;whiteSpace=wrap;rounded=0;fontColor=#FFFFFF;" parent="1" vertex="1">
          <mxGeometry x="380" y="305" width="60" height="30" as="geometry" />
        </mxCell>
        <mxCell id="TACkRqqkwIsRz9XqD-mi-33" value="Front&lt;div&gt;Left&lt;/div&gt;" style="text;html=1;align=center;verticalAlign=middle;whiteSpace=wrap;rounded=0;fontColor=#FFFFFF;" parent="1" vertex="1">
          <mxGeometry x="375" y="475" width="60" height="30" as="geometry" />
        </mxCell>
        <mxCell id="TACkRqqkwIsRz9XqD-mi-34" value="Front&lt;div&gt;Right&lt;/div&gt;" style="text;html=1;align=center;verticalAlign=middle;whiteSpace=wrap;rounded=0;fontColor=#FFFFFF;" parent="1" vertex="1">
          <mxGeometry x="665" y="443" width="60" height="30" as="geometry" />
        </mxCell>
        <mxCell id="TACkRqqkwIsRz9XqD-mi-36" value="" style="ellipse;whiteSpace=wrap;html=1;aspect=fixed;fillColor=#008a00;strokeColor=#005700;fontColor=#ffffff;" parent="1" vertex="1">
          <mxGeometry x="735" y="515" width="40" height="40" as="geometry" />
        </mxCell>
        <mxCell id="TACkRqqkwIsRz9XqD-mi-38" value="Right" style="text;html=1;align=center;verticalAlign=middle;whiteSpace=wrap;rounded=0;fontColor=#FFFFFF;" parent="1" vertex="1">
          <mxGeometry x="565" y="630" width="60" height="30" as="geometry" />
        </mxCell>
        <mxCell id="TACkRqqkwIsRz9XqD-mi-39" value="Left" style="text;html=1;align=center;verticalAlign=middle;whiteSpace=wrap;rounded=0;fontColor=#FFFFFF;" parent="1" vertex="1">
          <mxGeometry x="480" y="630" width="60" height="30" as="geometry" />
        </mxCell>
        <mxCell id="TACkRqqkwIsRz9XqD-mi-42" value="L4" style="text;html=1;align=center;verticalAlign=middle;whiteSpace=wrap;rounded=0;fontColor=#FFFFFF;" parent="1" vertex="1">
          <mxGeometry x="270" y="291" width="60" height="30" as="geometry" />
        </mxCell>
        <mxCell id="TACkRqqkwIsRz9XqD-mi-43" value="L3" style="text;html=1;align=center;verticalAlign=middle;whiteSpace=wrap;rounded=0;fontColor=#FFFFFF;" parent="1" vertex="1">
          <mxGeometry x="270" y="340" width="60" height="30" as="geometry" />
        </mxCell>
        <mxCell id="TACkRqqkwIsRz9XqD-mi-44" value="L2" style="text;html=1;align=center;verticalAlign=middle;whiteSpace=wrap;rounded=0;fontColor=#FFFFFF;" parent="1" vertex="1">
          <mxGeometry x="270" y="385" width="60" height="30" as="geometry" />
        </mxCell>
        <mxCell id="TACkRqqkwIsRz9XqD-mi-45" value="L1" style="text;html=1;align=center;verticalAlign=middle;whiteSpace=wrap;rounded=0;fontColor=#FFFFFF;" parent="1" vertex="1">
          <mxGeometry x="270" y="430" width="60" height="30" as="geometry" />
        </mxCell>
        <mxCell id="TACkRqqkwIsRz9XqD-mi-47" value="Processor" style="text;html=1;align=center;verticalAlign=middle;whiteSpace=wrap;rounded=0;fontColor=#FFFFFF;" parent="1" vertex="1">
          <mxGeometry x="780" y="470" width="60" height="30" as="geometry" />
        </mxCell>
        <mxCell id="Stlx8gtC8gVRI6dV_Ask-1" value="" style="ellipse;whiteSpace=wrap;html=1;aspect=fixed;fillColor=#008a00;strokeColor=#005700;fontColor=#ffffff;" parent="1" vertex="1">
          <mxGeometry x="735" y="465" width="40" height="40" as="geometry" />
        </mxCell>
        <mxCell id="Stlx8gtC8gVRI6dV_Ask-2" value="Floor" style="text;html=1;align=center;verticalAlign=middle;whiteSpace=wrap;rounded=0;fontColor=#FFFFFF;" parent="1" vertex="1">
          <mxGeometry x="775" y="515" width="60" height="30" as="geometry" />
        </mxCell>
        <mxCell id="Stlx8gtC8gVRI6dV_Ask-3" value="" style="ellipse;whiteSpace=wrap;html=1;aspect=fixed;fillColor=#008a00;strokeColor=#005700;fontColor=#ffffff;" parent="1" vertex="1">
          <mxGeometry x="735" y="415" width="40" height="40" as="geometry" />
        </mxCell>
        <mxCell id="Stlx8gtC8gVRI6dV_Ask-4" value="Low" style="text;html=1;align=center;verticalAlign=middle;whiteSpace=wrap;rounded=0;fontColor=#FFFFFF;" parent="1" vertex="1">
          <mxGeometry x="775" y="415" width="60" height="30" as="geometry" />
        </mxCell>
        <mxCell id="Stlx8gtC8gVRI6dV_Ask-5" value="" style="ellipse;whiteSpace=wrap;html=1;aspect=fixed;fillColor=#008a00;strokeColor=#005700;fontColor=#ffffff;" parent="1" vertex="1">
          <mxGeometry x="735" y="365" width="40" height="40" as="geometry" />
        </mxCell>
        <mxCell id="Stlx8gtC8gVRI6dV_Ask-6" value="High" style="text;html=1;align=center;verticalAlign=middle;whiteSpace=wrap;rounded=0;fontColor=#FFFFFF;" parent="1" vertex="1">
          <mxGeometry x="775" y="365" width="60" height="30" as="geometry" />
        </mxCell>
        <mxCell id="Stlx8gtC8gVRI6dV_Ask-7" value="" style="ellipse;whiteSpace=wrap;html=1;aspect=fixed;fillColor=#008a00;strokeColor=#005700;fontColor=#ffffff;" parent="1" vertex="1">
          <mxGeometry x="735" y="315" width="40" height="40" as="geometry" />
        </mxCell>
        <mxCell id="Stlx8gtC8gVRI6dV_Ask-8" value="Barge" style="text;html=1;align=center;verticalAlign=middle;whiteSpace=wrap;rounded=0;fontColor=#FFFFFF;" parent="1" vertex="1">
          <mxGeometry x="775" y="320" width="60" height="30" as="geometry" />
        </mxCell>
        <mxCell id="Stlx8gtC8gVRI6dV_Ask-10" value="Center" style="text;html=1;align=center;verticalAlign=middle;whiteSpace=wrap;rounded=0;fontColor=#FFFFFF;" parent="1" vertex="1">
          <mxGeometry x="520" y="680" width="60" height="30" as="geometry" />
        </mxCell>
        <mxCell id="Stlx8gtC8gVRI6dV_Ask-12" value="Station" style="text;html=1;align=center;verticalAlign=middle;whiteSpace=wrap;rounded=0;fontColor=#FFFFFF;" parent="1" vertex="1">
          <mxGeometry x="655" y="635" width="60" height="30" as="geometry" />
        </mxCell>
        <mxCell id="Stlx8gtC8gVRI6dV_Ask-14" value="Station" style="text;html=1;align=center;verticalAlign=middle;whiteSpace=wrap;rounded=0;fontColor=#FFFFFF;" parent="1" vertex="1">
          <mxGeometry x="390" y="640" width="60" height="30" as="geometry" />
        </mxCell>
        <mxCell id="NvIgzqc9MJrezyoWTwpg-1" value="" style="ellipse;whiteSpace=wrap;html=1;aspect=fixed;fillColor=#a20025;strokeColor=#FFFFFF;fontColor=#ffffff;" vertex="1" parent="1">
          <mxGeometry x="665" y="373" width="40" height="40" as="geometry" />
        </mxCell>
        <mxCell id="NvIgzqc9MJrezyoWTwpg-2" value="" style="ellipse;whiteSpace=wrap;html=1;aspect=fixed;fillColor=#0050ef;strokeColor=#FFFFFF;fontColor=#ffffff;" vertex="1" parent="1">
          <mxGeometry x="400" y="373" width="40" height="40" as="geometry" />
        </mxCell>
        <mxCell id="NvIgzqc9MJrezyoWTwpg-3" value="" style="ellipse;whiteSpace=wrap;html=1;aspect=fixed;fillColor=#a20025;strokeColor=#FFFFFF;fontColor=#ffffff;" vertex="1" parent="1">
          <mxGeometry x="665" y="600" width="40" height="40" as="geometry" />
        </mxCell>
        <mxCell id="NvIgzqc9MJrezyoWTwpg-4" value="" style="ellipse;whiteSpace=wrap;html=1;aspect=fixed;fillColor=#330000;strokeColor=#001DBC;fontColor=#ffffff;" vertex="1" parent="1">
          <mxGeometry x="315" y="560" width="40" height="40" as="geometry" />
        </mxCell>
        <mxCell id="NvIgzqc9MJrezyoWTwpg-5" value="" style="ellipse;whiteSpace=wrap;html=1;aspect=fixed;fillColor=#a20025;strokeColor=#6F0000;fontColor=#ffffff;" vertex="1" parent="1">
          <mxGeometry x="570" y="595" width="40" height="40" as="geometry" />
        </mxCell>
        <mxCell id="NvIgzqc9MJrezyoWTwpg-6" value="" style="ellipse;whiteSpace=wrap;html=1;aspect=fixed;fillColor=#0050ef;strokeColor=#001DBC;fontColor=#ffffff;" vertex="1" parent="1">
          <mxGeometry x="490" y="595" width="40" height="40" as="geometry" />
        </mxCell>
        <mxCell id="NvIgzqc9MJrezyoWTwpg-7" value="AprilTag" style="text;html=1;align=center;verticalAlign=middle;whiteSpace=wrap;rounded=0;fontColor=#FFFFFF;" vertex="1" parent="1">
          <mxGeometry x="520" y="565" width="60" height="30" as="geometry" />
        </mxCell>
        <mxCell id="NvIgzqc9MJrezyoWTwpg-8" value="" style="ellipse;whiteSpace=wrap;html=1;aspect=fixed;fillColor=#330000;strokeColor=#005700;fontColor=#ffffff;" vertex="1" parent="1">
          <mxGeometry x="530" y="640" width="40" height="40" as="geometry" />
        </mxCell>
        <mxCell id="NvIgzqc9MJrezyoWTwpg-16" value="" style="ellipse;whiteSpace=wrap;html=1;aspect=fixed;fillColor=#fff2cc;strokeColor=#d6b656;" vertex="1" parent="1">
          <mxGeometry x="315" y="286" width="40" height="40" as="geometry" />
        </mxCell>
        <mxCell id="NvIgzqc9MJrezyoWTwpg-17" value="" style="ellipse;whiteSpace=wrap;html=1;aspect=fixed;fillColor=#fff2cc;strokeColor=#d6b656;" vertex="1" parent="1">
          <mxGeometry x="315" y="335" width="40" height="40" as="geometry" />
        </mxCell>
        <mxCell id="NvIgzqc9MJrezyoWTwpg-18" value="" style="ellipse;whiteSpace=wrap;html=1;aspect=fixed;fillColor=#fff2cc;strokeColor=#d6b656;" vertex="1" parent="1">
          <mxGeometry x="315" y="380" width="40" height="40" as="geometry" />
        </mxCell>
        <mxCell id="NvIgzqc9MJrezyoWTwpg-19" value="" style="ellipse;whiteSpace=wrap;html=1;aspect=fixed;fillColor=#fff2cc;strokeColor=#d6b656;" vertex="1" parent="1">
          <mxGeometry x="315" y="425" width="40" height="40" as="geometry" />
        </mxCell>
        <mxCell id="NvIgzqc9MJrezyoWTwpg-20" value="" style="ellipse;whiteSpace=wrap;html=1;aspect=fixed;fillColor=#fff2cc;strokeColor=#d6b656;" vertex="1" parent="1">
          <mxGeometry x="315" y="470" width="40" height="40" as="geometry" />
        </mxCell>
        <mxCell id="NvIgzqc9MJrezyoWTwpg-21" value="" style="ellipse;whiteSpace=wrap;html=1;aspect=fixed;fillColor=#fff2cc;strokeColor=#d6b656;" vertex="1" parent="1">
          <mxGeometry x="315" y="515" width="40" height="40" as="geometry" />
        </mxCell>
        <mxCell id="NvIgzqc9MJrezyoWTwpg-22" value="Floor" style="text;html=1;align=center;verticalAlign=middle;whiteSpace=wrap;rounded=0;fontColor=#FFFFFF;" vertex="1" parent="1">
          <mxGeometry x="265" y="475" width="55" height="30" as="geometry" />
        </mxCell>
        <mxCell id="NvIgzqc9MJrezyoWTwpg-25" value="" style="rounded=0;whiteSpace=wrap;html=1;" vertex="1" parent="1">
          <mxGeometry x="247.5" y="520" width="12.5" height="30" as="geometry" />
        </mxCell>
        <mxCell id="NvIgzqc9MJrezyoWTwpg-26" value="Floor" style="text;html=1;align=center;verticalAlign=middle;whiteSpace=wrap;rounded=0;fontColor=#FFFFFF;" vertex="1" parent="1">
          <mxGeometry x="262.5" y="520" width="52.5" height="30" as="geometry" />
        </mxCell>
        <mxCell id="NvIgzqc9MJrezyoWTwpg-27" value="Start" style="text;html=1;align=center;verticalAlign=middle;whiteSpace=wrap;rounded=0;fontColor=#FFFFFF;" vertex="1" parent="1">
          <mxGeometry x="262.5" y="565" width="52.5" height="30" as="geometry" />
        </mxCell>
        <mxCell id="NvIgzqc9MJrezyoWTwpg-28" value="" style="ellipse;whiteSpace=wrap;html=1;aspect=fixed;fillColor=#0050ef;strokeColor=#FFFFFF;fontColor=#ffffff;" vertex="1" parent="1">
          <mxGeometry x="400" y="605" width="40" height="40" as="geometry" />
        </mxCell>
        <mxCell id="NvIgzqc9MJrezyoWTwpg-29" value="" style="endArrow=none;html=1;rounded=0;" edge="1" parent="1">
          <mxGeometry width="50" height="50" relative="1" as="geometry">
            <mxPoint x="440" y="700" as="sourcePoint" />
            <mxPoint x="360" y="640" as="targetPoint" />
          </mxGeometry>
        </mxCell>
        <mxCell id="NvIgzqc9MJrezyoWTwpg-30" value="" style="endArrow=none;html=1;rounded=0;" edge="1" parent="1">
          <mxGeometry width="50" height="50" relative="1" as="geometry">
            <mxPoint x="660" y="697.5" as="sourcePoint" />
            <mxPoint x="740" y="640" as="targetPoint" />
          </mxGeometry>
        </mxCell>
        <mxCell id="NvIgzqc9MJrezyoWTwpg-31" value="" style="ellipse;whiteSpace=wrap;html=1;aspect=fixed;fillColor=#330000;strokeColor=#005700;fontColor=#ffffff;" vertex="1" parent="1">
          <mxGeometry x="735" y="565" width="40" height="40" as="geometry" />
        </mxCell>
        <mxCell id="NvIgzqc9MJrezyoWTwpg-32" value="Start" style="text;html=1;align=center;verticalAlign=middle;whiteSpace=wrap;rounded=0;fontColor=#FFFFFF;" vertex="1" parent="1">
          <mxGeometry x="775" y="570" width="60" height="30" as="geometry" />
        </mxCell>
        <mxCell id="NvIgzqc9MJrezyoWTwpg-36" value="Front" style="text;html=1;align=center;verticalAlign=middle;whiteSpace=wrap;rounded=0;fontColor=#FFFFFF;" vertex="1" parent="1">
          <mxGeometry x="520" y="535" width="60" height="30" as="geometry" />
        </mxCell>
        <mxCell id="NvIgzqc9MJrezyoWTwpg-38" value="Coral" style="text;html=1;align=center;verticalAlign=middle;whiteSpace=wrap;rounded=0;fontColor=#FFFFFF;" vertex="1" parent="1">
          <mxGeometry x="305" y="248" width="60" height="30" as="geometry" />
        </mxCell>
        <mxCell id="NvIgzqc9MJrezyoWTwpg-39" value="Algae" style="text;html=1;align=center;verticalAlign=middle;whiteSpace=wrap;rounded=0;fontColor=#FFFFFF;" vertex="1" parent="1">
          <mxGeometry x="725" y="283" width="60" height="30" as="geometry" />
        </mxCell>
      </root>
    </mxGraphModel>
  </diagram>
</mxfile>
